<?xml version="1.0" encoding="UTF-8"?>
<svg version="1.1" xmlns="http://www.w3.org/2000/svg" width="1440" height="440">
<path d="M0 0 C475.2 0 950.4 0 1440 0 C1440 145.2 1440 290.4 1440 440 C1433.5765094 440 1427.48008879 439.8950648 1421.13720703 439.2565918 C1420.30114583 439.17648172 1419.46508463 439.09637165 1418.60368824 439.013834 C1416.78331648 438.83887976 1414.96314909 438.66178857 1413.14317131 438.48278236 C1410.16183485 438.18978638 1407.17996296 437.90288842 1404.19789124 437.61747742 C1399.82246701 437.19847993 1395.44723054 436.77759565 1391.07211304 436.35540771 C1306.90573352 428.24852856 1222.62846268 421.16987771 829.53649902 398.10714722 C826.40532168 398.01228025 823.27452317 397.90893844 820.14368153 397.80368996 C788.14073643 396.74603415 756.12582444 396.79814653 724.10935259 396.81165123 C721.85781253 396.81250653 719.6062727 396.81295437 717.35473251 396.81330872 C675.02932043 396.82151207 632.73983936 396.91245321 590.44493294 398.72754002 C584.98020582 398.96137222 579.514914 399.17819363 574.04931641 399.390625 C470.29605484 403.43830211 366.66932081 410.05074507 89.875 432.5 C89.14908661 432.5658012 88.42317322 432.63160239 87.67526245 432.69939756 C77.32209921 433.63820935 66.96944986 434.58255561 56.6171875 435.53125 C54.78271875 435.69920547 54.78271875 435.69920547 52.91119003 435.87055397 C49.43402292 436.18934927 45.95697153 436.50936878 42.47998047 436.83007812 C41.40191572 436.92922107 40.32385098 437.02836401 39.2131176 437.13051128 C34.22594907 437.59282082 29.24179343 438.07244976 24.26080322 438.59741211 C23.3617885 438.69141045 22.46277378 438.78540878 21.53651619 438.88225555 C19.90163105 439.05497039 18.26718593 439.23194547 16.63339043 439.41468048 C10.99352064 440.01135494 5.75809224 440 0 440 C0 294.8 0 149.6 0 0 Z " fill="#EAF2FF" transform="translate(0,0)"/>
</svg>
